<svg xmlns="http://www.w3.org/2000/svg" version="1.1" xmlns:xlink="http://www.w3.org/1999/xlink" xmlns:svgjs="http://svgjs.com/svgjs" width="1440" height="560" preserveAspectRatio="none" viewBox="0 0 1440 560"><g mask="url(&quot;#SvgjsMask1129&quot;)" fill="none"><rect width="1440" height="560" x="0" y="0" fill="rgba(255, 254, 236, 1)"></rect><path d="M1464 560L0 560 L0 373.89Q76.5 330.38, 120 406.88Q195.19 362.07, 240 437.26Q242.44 367.69, 312 370.13Q412.21 398.34, 384 498.54Q361.46 404, 456 381.47Q527.7 381.17, 528 452.87Q580.74 433.61, 600 486.35Q621.61 387.96, 720 409.56Q786.3 355.86, 840 422.16Q881.27 391.44, 912 432.71Q992.95 393.66, 1032 474.61Q1044.11 366.72, 1152 378.82Q1193.25 348.07, 1224 389.32Q1295.24 340.56, 1344 411.79Q1436.63 384.42, 1464 477.04z" fill="rgba(255, 175, 150, 1)"></path><path d="M1464 560L0 560 L0 563.28Q-13.21 478.07, 72 464.86Q125.81 446.67, 144 500.48Q222.14 506.63, 216 584.77Q203.35 500.12, 288 487.46Q340.36 419.81, 408 472.17Q473.78 465.95, 480 531.73Q507.19 486.92, 552 514.11Q639.63 481.75, 672 569.38Q672.94 498.32, 744 499.25Q767.78 451.03, 816 474.81Q900.09 438.89, 936 522.98Q1016.02 483, 1056 563.02Q1057.63 492.64, 1128 494.27Q1153.68 447.95, 1200 473.64Q1241.22 442.87, 1272 484.09Q1352.66 492.75, 1344 573.41Q1367.8 477.21, 1464 501.01z" fill="rgba(205, 111, 63, 1)"></path></g><defs><mask id="SvgjsMask1129"><rect width="1440" height="560" fill="#ffffff"></rect></mask></defs></svg>