<svg xmlns="http://www.w3.org/2000/svg" version="1.1" xmlns:xlink="http://www.w3.org/1999/xlink" xmlns:svgjs="http://svgjs.com/svgjs" width="1440" height="560" preserveAspectRatio="none" viewBox="0 0 1440 560"><g mask="url(&quot;#SvgjsMask1146&quot;)" fill="none"><rect width="1440" height="560" x="0" y="0" fill="rgba(255, 254, 236, 1)"></rect><path d="M1536 560L0 560 L0 391.46Q111.58 383.04, 120 494.63Q160.94 415.57, 240 456.51Q266.58 363.09, 360 389.66Q441.24 350.9, 480 432.15Q529.13 409.28, 552 458.41Q632.39 418.8, 672 499.19Q699.81 455, 744 482.82Q771.5 438.32, 816 465.83Q813.95 391.78, 888 389.73Q916.65 346.38, 960 375.03Q1035.24 330.27, 1080 405.51Q1122.24 375.75, 1152 418Q1226 372, 1272 446.01Q1329.56 431.57, 1344 489.13Q1365.36 438.49, 1416 459.84Q1432.13 355.98, 1536 372.11z" fill="rgba(132, 174, 227, 1)"></path><path d="M1560 560L0 560 L0 471.84Q106.41 458.25, 120 564.66Q192.17 516.83, 240 589Q276.37 505.37, 360 541.73Q414.27 476, 480 530.28Q549.7 527.98, 552 597.68Q583.51 509.19, 672 540.7Q701.78 498.48, 744 528.26Q779.96 444.22, 864 480.18Q893.72 437.9, 936 467.62Q1040.33 451.95, 1056 556.28Q1103.57 531.85, 1128 579.42Q1130.74 462.15, 1248 464.89Q1368.38 465.26, 1368 585.64Q1360.13 505.76, 1440 497.89Q1491.45 429.35, 1560 480.8z" fill="rgba(97, 130, 235, 1)"></path></g><defs><mask id="SvgjsMask1146"><rect width="1440" height="560" fill="#ffffff"></rect></mask></defs></svg>