<svg xmlns="http://www.w3.org/2000/svg" version="1.1" xmlns:xlink="http://www.w3.org/1999/xlink" xmlns:svgjs="http://svgjs.com/svgjs" width="1440" height="560" preserveAspectRatio="none" viewBox="0 0 1440 560"><g mask="url(&quot;#SvgjsMask1005&quot;)" fill="none"><rect width="1440" height="560" x="0" y="0" fill="rgba(254, 253, 239, 1)"></rect><path d="M382.01 662.39C507.6 654.2 597.26 417.24 821.24 416.38 1045.22 415.52 1040.86 486.38 1260.48 486.38 1480.09 486.38 1588.52 416.6 1699.71 416.38" stroke="rgba(255, 207, 196, 0.42)" stroke-width="2"></path><path d="M262.93 605.06C395.28 599.42 499.19 378.8 741.82 378.28 984.45 377.76 981.26 448.28 1220.7 448.28 1460.15 448.28 1578.6 378.46 1699.59 378.28" stroke="rgba(255, 207, 196, 0.42)" stroke-width="2"></path><path d="M779.99 582.01C885.43 581.66 970.86 509.69 1194.35 503.37 1417.84 497.05 1487.16 255.98 1608.71 245.77" stroke="rgba(255, 207, 196, 0.42)" stroke-width="2"></path><path d="M637.24 581.17C731.01 570.79 687.59 377.44 946.43 364.83 1205.28 352.22 1398.46 122.91 1564.82 118.43" stroke="rgba(255, 207, 196, 0.42)" stroke-width="2"></path><path d="M170.47 624.35C355.7 614.37 495.02 283.35 829.05 282.55 1163.07 281.75 1320.37 399.69 1487.62 400.15" stroke="rgba(255, 207, 196, 0.42)" stroke-width="2"></path></g><defs><mask id="SvgjsMask1005"><rect width="1440" height="560" fill="#ffffff"></rect></mask></defs></svg>